<svg xmlns="http://www.w3.org/2000/svg" width="420" height="230" viewBox="0 0 420 230" role="img" aria-label="项目主要语言分布">
    <style>svg{--text:#24292f;--muted:#57606a;--border:#d0d7de;--title:#0969da}text{font-family:Arial,sans-serif}.muted{fill:var(--muted)}.value{fill:var(--text);font-size:14px;font-weight:600}@media(prefers-color-scheme:dark){svg{--text:#c9d1d9;--muted:#8b949e;--border:#30363d;--title:#58a6ff}}</style>
    <rect x="1" y="1" width="418" height="228" rx="6" fill="none" stroke="var(--border)"/>
    <text x="18" y="29" fill="var(--title)" font-size="16" font-weight="600">项目主要语言分布</text>
    <text x="18" y="49" class="muted" font-size="10">21 public non-fork repos with a detected language</text><rect x="18.00" y="67" width="164.57" height="8" fill="#3572A5"/><rect x="182.57" y="67" width="54.86" height="8" fill="#f1e05a"/><rect x="237.43" y="67" width="36.57" height="8" fill="#F05138"/><rect x="274.00" y="67" width="36.57" height="8" fill="#3178c6"/><rect x="310.57" y="67" width="36.57" height="8" fill="#41b883"/><rect x="347.14" y="67" width="18.29" height="8" fill="#555555"/><rect x="365.43" y="67" width="18.29" height="8" fill="#7355dd"/><rect x="383.71" y="67" width="18.29" height="8" fill="#f34b7d"/><circle cx="22" cy="98" r="4" fill="#3572A5"/><text x="33" y="102" class="value" style="font-size:11px;font-weight:400">Python <tspan class="muted">9 · 42.9%</tspan></text><circle cx="218" cy="98" r="4" fill="#f1e05a"/><text x="229" y="102" class="value" style="font-size:11px;font-weight:400">JavaScript <tspan class="muted">3 · 14.3%</tspan></text><circle cx="22" cy="123" r="4" fill="#F05138"/><text x="33" y="127" class="value" style="font-size:11px;font-weight:400">Swift <tspan class="muted">2 · 9.5%</tspan></text><circle cx="218" cy="123" r="4" fill="#3178c6"/><text x="229" y="127" class="value" style="font-size:11px;font-weight:400">TypeScript <tspan class="muted">2 · 9.5%</tspan></text><circle cx="22" cy="148" r="4" fill="#41b883"/><text x="33" y="152" class="value" style="font-size:11px;font-weight:400">Vue <tspan class="muted">2 · 9.5%</tspan></text><circle cx="218" cy="148" r="4" fill="#555555"/><text x="229" y="152" class="value" style="font-size:11px;font-weight:400">C <tspan class="muted">1 · 4.8%</tspan></text><circle cx="22" cy="173" r="4" fill="#7355dd"/><text x="33" y="177" class="value" style="font-size:11px;font-weight:400">C# <tspan class="muted">1 · 4.8%</tspan></text><circle cx="218" cy="173" r="4" fill="#f34b7d"/><text x="229" y="177" class="value" style="font-size:11px;font-weight:400">C++ <tspan class="muted">1 · 4.8%</tspan></text><text x="18" y="216" class="muted" font-size="9">One repo = one vote · Updated 2026-09-18</text></svg>